<?xml version="1.0" standalone="no"?><!DOCTYPE svg PUBLIC "-//W3C//DTD SVG 1.1//EN" "http://www.w3.org/Graphics/SVG/1.1/DTD/svg11.dtd"><svg t="1626776457986" class="icon" viewBox="0 0 1024 1024" version="1.1" xmlns="http://www.w3.org/2000/svg" p-id="41716" xmlns:xlink="http://www.w3.org/1999/xlink" width="200" height="200"><defs><style type="text/css"></style></defs><path d="M238.545019 91.881691a19.730971 19.730971 0 0 1 19.730971 19.730972v116.344694a19.050593 19.050593 0 0 1-19.730971 19.050593 18.370215 18.370215 0 0 1-19.050594-19.050593V111.612663a19.050593 19.050593 0 0 1 19.050594-19.730972z" fill="#d81e06" p-id="41717" data-spm-anchor-id="a313x.7781069.0.i121" class=""></path><path d="M329.715714 232.039627a19.730971 19.730971 0 0 1-19.730971 19.730971h-68.037833a19.730971 19.730971 0 0 1-19.730971-19.730971 19.730971 19.730971 0 0 1 19.730971-19.050593h68.037833a19.730971 19.730971 0 0 1 19.730971 19.050593z" fill="#d81e06" p-id="41718" data-spm-anchor-id="a313x.7781069.0.i120" class=""></path><path d="M348.766308 341.580537a155.806637 155.806637 0 1 1 26.534754-220.442578 157.847772 157.847772 0 0 1 29.936647 127.230748l63.955563-23.813242v-8.16454a216.360308 216.360308 0 1 0-117.705451 192.547067z" fill="#d81e06" p-id="41719" data-spm-anchor-id="a313x.7781069.0.i119" class=""></path><path d="M952.261884 808.32007h-106.139019a304.129112 304.129112 0 0 0-182.341392-228.607118 214.319173 214.319173 0 0 0 95.252966-178.9395 216.360308 216.360308 0 0 0-432.720616 0 216.360308 216.360308 0 0 0 94.572587 178.9395 304.809491 304.809491 0 0 0-184.382526 240.17355 10.205675 10.205675 0 0 0 0 6.123405v7.484161a31.297403 31.297403 0 1 0 61.914427 0 250.379225 250.379225 0 0 1 232.00901-217.040686 91.170696 91.170696 0 0 0 27.215133 0 249.698846 249.698846 0 0 1 227.246362 191.866688H527.705808a33.338538 33.338538 0 0 0-31.977782 34.699295 34.018916 34.018916 0 0 0 31.977782 31.977781h424.556076a34.018916 34.018916 0 1 0 0-68.037832z m-408.226996-253.100738a156.487015 156.487015 0 0 1-155.126259-154.44588 149.683232 149.683232 0 0 1 45.585348-108.860532 154.44588 154.44588 0 0 1 217.721065 0 149.683232 149.683232 0 0 1 45.585348 108.860532 155.126259 155.126259 0 0 1-154.445881 154.44588z m408.226996 468.780668h-816.453993a34.018916 34.018916 0 0 1 0-68.037833h816.453993a34.018916 34.018916 0 0 1 0 68.037833z" fill="#0061b0" p-id="41720" data-spm-anchor-id="a313x.7781069.0.i123" class="selected"></path></svg>