<?xml version="1.0" standalone="no"?><!DOCTYPE svg PUBLIC "-//W3C//DTD SVG 1.1//EN" "http://www.w3.org/Graphics/SVG/1.1/DTD/svg11.dtd"><svg t="1626775034977" class="icon" viewBox="0 0 1024 1024" version="1.1" xmlns="http://www.w3.org/2000/svg" p-id="22851" data-spm-anchor-id="a313x.7781069.0.i27" xmlns:xlink="http://www.w3.org/1999/xlink" width="200" height="200"><defs><style type="text/css"></style></defs><path d="M657.5 629.3c-38.5 0-77.2-9.2-112.3-26.7L528 594c-44.5-22.2-93.6-31.9-142-28.1-14.9 1.2-29.8 3.6-44.3 7.3L327 515c17.8-4.5 36-7.5 54.3-9 59.3-4.7 119.4 7.1 173.6 34.2l17.2 8.6c29.1 14.5 61.1 21.5 92.8 20.2 31.7-1.3 63.3-10.9 91.4-27.7l85.7-51.4c2.1-1.3 4.5-4.9 4.5-9.9V136.6c0-2.6-0.7-5.2-1.9-7.2-1.1-1.7-2.4-2.9-3.6-3.1-0.3-0.1-1.1-0.2-2.4 0.8l-48.4 37.4c-36.3 28-78.9 44.1-123.1 46.5-44.3 2.4-88.2-9.2-126.8-33.3l-18.4-11.5c-73.6-46-160.4-52.1-238.4-16.8L242.1 168l-24.7-54.7 41.3-18.7c47.1-21.3 98.9-30.7 149.7-27.2 50.7 3.6 100.9 20.1 145.2 47.7l18.4 11.5c57.5 36 127.1 32.2 181.4-9.8l48.4-37.4c14.5-11.2 32.3-15.6 49.9-12.3 18 3.3 34 14.6 44 30.9 7 11.5 10.7 24.8 10.7 38.5v343.6c0 25.4-12.9 49-33.6 61.4l-85.7 51.4c-36.7 22-78.2 34.5-119.9 36.2-3.1 0.1-6.4 0.2-9.7 0.2z" fill="#d81e06" p-id="22852" data-spm-anchor-id="a313x.7781069.0.i28" class=""></path><path d="M110.1 147.375l57.282-17.856 252.663 810.54-57.282 17.857z" fill="#f2800d" p-id="22853" data-spm-anchor-id="a313x.7781069.0.i26" class="selected"></path></svg>