<?xml version="1.0" standalone="no"?><!DOCTYPE svg PUBLIC "-//W3C//DTD SVG 1.1//EN" "http://www.w3.org/Graphics/SVG/1.1/DTD/svg11.dtd"><svg t="1626777450420" class="icon" viewBox="0 0 1024 1024" version="1.1" xmlns="http://www.w3.org/2000/svg" p-id="66942" xmlns:xlink="http://www.w3.org/1999/xlink" width="200" height="200"><defs><style type="text/css"></style></defs><path d="M32 347.2h204.8v614.4H32zM32 80h204.8v235.2H32z" fill="#1296db" p-id="66943" data-spm-anchor-id="a313x.7781069.0.i192" class="selected"></path><path d="M0 48v944h268.8V48H0z m32 913.6V347.2h204.8v614.4H32z m204.8-646.4H32V80h204.8v235.2z" fill="#1A1718" p-id="66944"></path><path d="M368 347.2h204.8v614.4H368zM368 80h204.8v235.2H368z" fill="#f4ea2a" p-id="66945" data-spm-anchor-id="a313x.7781069.0.i193" class="selected"></path><path d="M336 48v944h268.8V48H336z m32 913.6V347.2h204.8v614.4H368z m204.8-646.4H368V80h204.8v235.2z" fill="#1A1718" p-id="66946"></path><path d="M931.2 297.6L910.4 64l-203.2 19.2 20.8 232zM988.8 940.8l-54.4-611.2-203.2 17.6L785.6 960z" fill="#e61c3c" p-id="66947" data-spm-anchor-id="a313x.7781069.0.i194" class=""></path><path d="M939.2 30.4L672 52.8l84.8 940.8L1024 971.2 939.2 30.4zM910.4 64l20.8 233.6-203.2 17.6-20.8-232L910.4 64z m24 265.6l54.4 611.2-203.2 19.2-54.4-612.8 203.2-17.6z" fill="#1A1718" p-id="66948"></path></svg>