<?xml version="1.0" standalone="no"?><!DOCTYPE svg PUBLIC "-//W3C//DTD SVG 1.1//EN" "http://www.w3.org/Graphics/SVG/1.1/DTD/svg11.dtd"><svg t="1626777332305" class="icon" viewBox="0 0 1024 1024" version="1.1" xmlns="http://www.w3.org/2000/svg" p-id="63515" xmlns:xlink="http://www.w3.org/1999/xlink" width="200" height="200"><defs><style type="text/css"></style></defs><path d="M254.98008 737.15761A31.862311 31.862311 0 1 0 286.84239 769.01992 31.854151 31.854151 0 0 0 254.98008 737.15761z m509.960159 0A31.862311 31.862311 0 1 0 796.80255 769.01992 31.854151 31.854151 0 0 0 764.940239 737.15761z m-414.33243 63.724621h318.704701v-63.724621H350.607809v63.724621zM988.058008 259.059761h-63.765418v-30.316112c0-88.733068-71.476016-160.918948-159.352351-160.918948V35.952191a31.87251 31.87251 0 1 0-63.74502 0V67.824701H286.84239V35.952191a31.862311 31.862311 0 1 0-63.724621 0v35.126056a160.784319 160.784319 0 0 0-127.49004 157.665402V259.059761H31.862311A31.854151 31.854151 0 0 0 0 290.932271V386.549801a31.87251 31.87251 0 1 0 63.74502 0v-63.74502h31.882709V896.50996a31.821514 31.821514 0 0 0 31.862311 31.862311h31.862311v63.765418A31.858231 31.858231 0 0 0 191.23506 1024h127.49004a31.858231 31.858231 0 0 0 31.882709-31.862311v-63.765418h318.704701v63.765418A31.858231 31.858231 0 0 0 701.195219 1024h127.49004a31.858231 31.858231 0 0 0 31.882709-31.862311v-63.765418h31.862311a31.821514 31.821514 0 0 0 31.862311-31.862311V322.804781h31.882709v63.74502a31.87251 31.87251 0 1 0 63.74502 0v-95.61753A31.854151 31.854151 0 0 0 988.058008 259.059761zM286.84239 960.25498h-63.724621v-31.882709h63.724621v31.882709z m509.96016 0h-63.724622v-31.882709h63.724622v31.882709z m63.765418-159.372749v63.765418H159.352351V641.52988h701.215617v159.352351zM254.98008 577.784861V328.997737c0-38.552988 28.863745-69.937976 64.295777-69.937976h158.821992v318.7251H254.98008z m398.401275-159.36255a79.757769 79.757769 0 0 0-79.676176 79.686374v79.676176h-31.882709V259.059761h158.821992c35.432032 0 64.295777 31.374789 64.295777 69.937976V577.784861h-31.862311v-79.676176a79.757769 79.757769 0 0 0-79.696573-79.686374z m15.931155 79.686374v79.676176H637.450199v-79.676176a15.931155 15.931155 0 0 1 31.862311 0z m191.255458 79.676176h-31.882709V328.997737c0-73.705562-57.462311-133.682996-128.040797-133.682996H319.275857c-70.578486 0-128.040797 59.971315-128.040797 133.682996V577.784861H159.352351V228.743649C159.352351 175.177434 202.250199 131.569721 254.98008 131.569721h509.960159c52.72988 0 95.627729 43.607713 95.627729 97.173928V577.784861z" p-id="63516" data-spm-anchor-id="a313x.7781069.0.i180" class="" fill="#0061b0"></path></svg>