<?xml version="1.0" standalone="no"?><!DOCTYPE svg PUBLIC "-//W3C//DTD SVG 1.1//EN" "http://www.w3.org/Graphics/SVG/1.1/DTD/svg11.dtd"><svg t="1626777580226" class="icon" viewBox="0 0 1024 1024" version="1.1" xmlns="http://www.w3.org/2000/svg" p-id="70876" xmlns:xlink="http://www.w3.org/1999/xlink" width="200" height="200"><defs><style type="text/css"></style></defs><path d="M549.1 746.3c-0.3-21.5-19.6-38.9-43.2-38.9-23.7 0-43 17.4-43.2 38.9v57.3h30v-56.9c0-5 6.2-9.3 13.3-9.3 7.1 0 13.3 4.4 13.3 9.3v56.9h30l-0.2-57.3z" fill="#f4ea2a" p-id="70877" data-spm-anchor-id="a313x.7781069.0.i202" class=""></path><path d="M904 571.9h-95.7v-48.4h70.6v-30c-20.1 0-35.6-9.8-47.4-29.9-9.6-16.5-12.6-33.5-12.6-33.7l-2.1-12.6h-66.7v-30.9h115v-30c-23.3 0-38.2-27.5-46.5-50.6-10.3-28.4-13.4-57.6-13.4-57.9l-1.4-13.5h-1.1v-29.2h-27.5v29.2H247.4v-29.2h-27.5v29.2h-1.3v15c0 0.3-0.1 28.6-8.7 56.6-15.4 50.4-42.3 50.4-51.1 50.4v30h115v30.9h-54l-15-0.1v15c0 0.2-0.2 16.6-8.2 32.3-9.9 19.4-26.8 28.9-51.6 28.9v30h70.6v48.4H120L99.4 833.7H924.3L904 571.9zM218.3 356.5c8.4-11 15.3-24.9 20.4-41.6 5.8-19 8.3-37.8 9.3-50.4h529.4c2 12.3 6 31.6 12.9 51 6.2 17.4 13.4 30.8 21 40.9h-593z m501.8 30.7v30.2H303.9v-30.2h416.2zM213.6 493.5c4.4-5.4 7.8-11.1 10.4-16.4 5.3-10.7 8-21.4 9.4-29.7H792.3c2.4 8.2 6.4 19.3 12.8 30.5 3.3 5.7 6.9 10.9 10.7 15.6H213.6z m564.7 30v48.4H245.7v-48.4h532.6zM261.6 803.7H235v-56.9c0-5 6.2-9.3 13.3-9.3s13.3 4.4 13.3 9.3v56.9z m128.7 0h-26.5v-56.9c0-5 6.2-9.3 13.3-9.3s13.3 4.4 13.3 9.3v56.9z m257.6 0h-26.5v-56.9c0-5 6.2-9.3 13.3-9.3s13.3 4.4 13.3 9.3v56.9z m128.7 0h-26.5v-56.9c0-5 6.2-9.3 13.3-9.3s13.3 4.4 13.3 9.3v56.9z m30 0v-57.3c-0.3-21.5-19.6-38.9-43.2-38.9s-43 17.4-43.2 38.9v57.3H678v-57.3c-0.3-21.5-19.6-38.9-43.2-38.9s-43 17.4-43.2 38.9v57.3H420.7v-57.3c-0.3-21.5-19.6-38.9-43.2-38.9s-43 17.4-43.2 38.9v57.3h-42.2v-57.3c-0.3-21.5-19.6-38.9-43.2-38.9s-43 17.4-43.2 38.9v57.3h-73.2l16-201.7H877l15.9 201.7h-86.3z" fill="#d81e06" p-id="70878" data-spm-anchor-id="a313x.7781069.0.i201" class=""></path></svg>