<?xml version="1.0" standalone="no"?><!DOCTYPE svg PUBLIC "-//W3C//DTD SVG 1.1//EN" "http://www.w3.org/Graphics/SVG/1.1/DTD/svg11.dtd"><svg class="icon" width="200px" height="200.00px" viewBox="0 0 1024 1024" version="1.1" xmlns="http://www.w3.org/2000/svg"><path d="M821.8 643.7c0 170-137.8 307.9-307.9 307.9S206 813.8 206 643.7C206 503.9 414.3 190.1 488.2 83c12.4-18 38.9-18 51.4 0 73.9 107.1 282.2 420.9 282.2 560.7z" fill="#39AFDA" /><path d="M747.8 616.8C747.8 488.3 572 213 486.1 86.2 410.4 195.9 206 505.2 206 643.7c0 119 67.6 222.2 166.5 273.5 21.7 4.9 44.3 7.5 67.5 7.5 170 0 307.8-137.8 307.8-307.9z" fill="#9CE4F3" /><path d="M256 688.3c0 79.3 30 151.6 79.3 206.1 11.8 8.4 24.2 16 37.1 22.7 21.7 4.9 44.3 7.5 67.5 7.5 170 0 307.9-137.8 307.9-307.9 0-110.9-131-331.2-222-470.9C443.4 266.5 256 555.6 256 688.3z" fill="#52C5F8" /><path d="M621.7 661.8l-59.6-11.1c-4.6-0.9-7.8-5-7.5-9.6l8.6-140.8c0.5-7.9-8.6-12.7-14.9-7.8l-146.2 114c-6.3 4.9-3.8 14.9 4 16.4l59.6 11.1c4.6 0.9 7.8 5 7.5 9.6l-8.6 140.8c-0.5 7.9 8.6 12.7 14.9 7.8l146.3-114.1c6.2-4.8 3.7-14.8-4.1-16.3z" fill="#FFFFFF" /></svg>