<?xml version="1.0" standalone="no"?><!DOCTYPE svg PUBLIC "-//W3C//DTD SVG 1.1//EN" "http://www.w3.org/Graphics/SVG/1.1/DTD/svg11.dtd"><svg class="icon" width="200px" height="200.00px" viewBox="0 0 1024 1024" version="1.1" xmlns="http://www.w3.org/2000/svg"><path d="M61.281 512a450.56 450.56 0 1 0 901.12 0 450.56 450.56 0 1 0-901.12 0z" fill="#92CEF8" /><path d="M240.803 583.997a346.64 346.64 0 1 0 693.28 0 346.64 346.64 0 1 0-693.28 0z" fill="#62B4F9" /><path d="M481.659 486.22a245.248 245.248 0 1 1 0.03 346.773 245.207 245.207 0 0 1-0.03-346.772z" fill="#3599F3" /><path d="M512.077 783.36a39.967 39.967 0 0 1-22.933-7.28l-77.952-54.447a0.783 0.783 0 0 0-0.834-0.03l-78.536 45.568a39.567 39.567 0 0 1-40.356-0.113 40.668 40.668 0 0 1-20.147-35.446V281.6a40.745 40.745 0 0 1 40.448-40.96h400.425a40.74 40.74 0 0 1 40.448 40.96v449.725a40.663 40.663 0 0 1-20.26 35.513 39.547 39.547 0 0 1-40.479-0.098l-76.625-45.148a0.763 0.763 0 0 0-0.835 0l-79.698 54.651a39.977 39.977 0 0 1-22.666 7.117z m-101.376-102a40.11 40.11 0 0 1 22.958 7.193l77.952 54.44a0.778 0.778 0 0 0 0.886 0l79.698-54.645a40.192 40.192 0 0 1 42.967-1.49l76.626 45.154a0.783 0.783 0 0 0 1.177-0.687V281.6a0.788 0.788 0 0 0-0.778-0.794H311.74a0.794 0.794 0 0 0-0.783 0.794v450.002a0.65 0.65 0 0 0 0.39 0.691 0.62 0.62 0 0 0 0.783 0l78.535-45.568a39.936 39.936 0 0 1 20.055-5.366z m210.585-149.3H475.453V365.568h39.619v126.316h106.22v40.176z" fill="#FFFFFF" /></svg>