<?xml version="1.0" standalone="no"?><!DOCTYPE svg PUBLIC "-//W3C//DTD SVG 1.1//EN" "http://www.w3.org/Graphics/SVG/1.1/DTD/svg11.dtd"><svg class="icon" width="200px" height="200.00px" viewBox="0 0 1024 1024" version="1.1" xmlns="http://www.w3.org/2000/svg"><path fill="#333333" d="M869.034667 860.330667a20.821333 20.821333 0 0 0 20.650666-20.650667V144.554667a20.821333 20.821333 0 0 0-20.650666-20.650667h-336.213334A20.992 20.992 0 0 0 512 144.554667V839.68a20.992 20.992 0 0 0 20.821333 20.650667z m-119.466667-619.52a8.021333 8.021333 0 0 1 7.509333-7.509334h69.973334c5.632-1.877333 7.509333 1.877333 7.509333 7.509334v60.416a8.192 8.192 0 0 1-7.509333 7.68h-69.973334a8.021333 8.021333 0 0 1-7.509333-7.68z m0 171.861333a8.021333 8.021333 0 0 1 7.509333-7.509333h69.973334a8.021333 8.021333 0 0 1 7.509333 7.509333v60.416a8.192 8.192 0 0 1-7.509333 7.68h-69.973334a8.021333 8.021333 0 0 1-7.509333-7.68z m-105.813333-181.248a8.021333 8.021333 0 0 1 7.509333 7.509333v60.416a8.021333 8.021333 0 0 1-7.509333 7.68h-69.973334a8.192 8.192 0 0 1-7.509333-7.68v-58.538666a8.021333 8.021333 0 0 1 7.509333-7.509334h69.973334z m-483.498667 119.466667a25.770667 25.770667 0 0 0-26.453333 26.453333 26.965333 26.965333 0 0 0 26.453333 26.453333h270.506667a25.770667 25.770667 0 0 0 26.453333-26.453333 26.965333 26.965333 0 0 0-26.453333-26.453333z m60.416 375.466666a28.842667 28.842667 0 0 1 28.330667-28.16h82.944a28.842667 28.842667 0 0 1 28.330666 28.16v134.144h56.661334A41.984 41.984 0 0 0 459.093333 819.2V469.333333a20.821333 20.821333 0 0 0-20.821333-20.650666H157.013333A20.821333 20.821333 0 0 0 136.533333 469.333333V819.2a41.984 41.984 0 0 0 41.642667 41.642667h45.226667v-134.656z"  /></svg>