<?xml version="1.0" standalone="no"?><!DOCTYPE svg PUBLIC "-//W3C//DTD SVG 1.1//EN" "http://www.w3.org/Graphics/SVG/1.1/DTD/svg11.dtd"><svg t="1626776290493" class="icon" viewBox="0 0 1024 1024" version="1.1" xmlns="http://www.w3.org/2000/svg" p-id="38978" id="mx_n_1626776290493" xmlns:xlink="http://www.w3.org/1999/xlink" width="200" height="200"><defs><style type="text/css"></style></defs><path d="M292.997636 822.784232c3.726881 0 7.04751 0 10.367115 0 162.54912 0 325.099263 0 487.650429-0.008186 2.88163 0 6.019087 0.584308 8.565073-0.366344 3.743254-1.400906 8.083096-3.154853 10.392698-6.138814 10.819416-13.994736 6.979972-34.019815-7.842619-43.87937-2.831488-1.88186-5.801123-3.602038-8.420787-5.741771-9.370415-7.66968-14.084787-17.538445-12.240789-29.687136 1.753947-11.565407 8.652054-19.267832 19.562545-23.489994 18.540262-7.172353 24.901133-23.393803 16.98279-41.706891-4.13825-9.550517-11.948123-14.801101-20.133549-20.106943-18.542308-12.028964-19.687388-30.373775-2.747577-44.61308 4.168949-3.505847 9.600659-5.578042 13.524015-9.28548 4.604878-4.352121 9.643638-9.18008 11.963473-14.839986 7.101745-17.326621-0.421602-34.108842-18.793018-43.188638-11.053754-5.469572-17.612123-13.811564-18.764366-25.997094-1.428535-15.105023 7.109931-26.689872 23.585161-32.779567 16.084327-5.948479 22.64065-21.787212 15.612583-37.420261-4.318352-9.635451-11.860119-15.491833-21.264303-19.778462-15.446807-7.04137-21.016663-23.821545-11.579733-37.841863 3.961218-5.879917 10.773368-10.335393 17.119913-14.000875 10.970866-6.335289 16.935718-18.922978 13.782911-32.058137-2.918469-12.17939-8.283664-15.759939-23.949458-15.759939-164.643827-0.01228-329.286632-0.008186-493.931482-0.010233-3.072989 0-6.148024 0-9.450233 0C292.997636 490.63439 292.997636 656.215566 292.997636 822.784232zM235.698628 325.213873c-1.064238-0.404206-1.785669-0.917906-2.50403-0.916882-45.014216 0.162706-90.038666-0.192382-135.034463 0.836041-18.718317 0.427742-27.237341 8.630564-31.232328 25.299199-1.150196 4.804423-1.982144 9.81146-2.01489 14.7264-0.243547 37.957497-0.39295 75.909877-0.258896 113.861234 0.050142 14.240329 3.621481 17.626449 17.377786 22.180162 8.03807 2.660596 16.543791 5.692652 23.059182 10.82351 18.073634 14.223956 19.939121 34.506908 15.621792 54.974056-4.261047 20.206204-16.321734 34.757618-37.554314 39.925315-14.290471 3.482311-18.157545 7.259334-18.215874 20.428262-0.23536 52.354392-0.500397 104.703667 0.176009 157.050895 0.313132 24.338315 13.052271 36.59036 36.544311 36.97103 42.396599 0.708128 84.800361 0.914836 127.2031 1.287319 2.240017 0.020466 4.484128-0.407276 6.830569-0.639566C235.698628 655.885038 235.698628 490.528989 235.698628 325.213873zM384.948861 278.611485c4.25593 0 7.860015 0 11.462053 0 146.621359 0 293.241694 0 439.864076 0.008186 4.448312 0 9.073656-0.63752 13.30605 0.353041 6.719028 1.569752 14.059204 2.965541 19.581987 6.721075 18.007119 12.249999 23.613814 57.153698-0.939395 71.091128-25.205055 14.309914-23.691585 50.812269 0.278339 67.166749 6.693446 4.563946 12.247952 9.892301 14.041808 18.101263 3.325745 15.231913-2.639107 26.635637-14.007015 36.636409-21.639856 19.048845-20.510126 47.01785 2.018983 64.48978 15.415085 11.948123 14.022365 42.591027-2.727111 52.5304-7.439436 4.409426-11.411911 10.721179-12.781094 18.723434-2.902096 16.897855-0.220011 31.251771 16.228613 41.258683 17.992793 10.95347 20.275789 31.769564 6.847965 46.339398-1.857301 2.012843-3.27765 4.429893-5.169743 7.031137 1.840928 0.849344 2.750647 1.632173 3.667529 1.632173 19.357883 0.063445 38.71679 0.290619 58.074673-0.085958 7.936763-0.152473 12.205996-5.709025 13.528108-13.041014 2.735297-15.177678-2.171456-27.606755-13.894452-37.715997-20.189831-17.408485-19.364023-34.054607 1.299599-50.558489 5.034666-4.022617 9.652847-10.023284 11.695367-16.053628 7.199982-21.206998 0.378623-39.007409-18.194384-51.260477-9.570983-6.312776-11.028171-16.170285-10.472516-26.296923 0.540306-9.851369 4.862751-17.616216 15.432481-20.195971 6.733355-1.64036 10.344602-6.274914 13.015432-12.4301 7.652284-17.701151 1.678222-41.85834-14.44192-51.54291-26.630521-16.003486-21.357424-52.087309 4.197602-60.321854 5.842055-1.882883 11.407817-8.55177 14.480806-14.394848 9.827833-18.640546 3.246951-41.615816-14.661931-52.987818-7.872295-4.998851-12.485359-11.30037-14.127765-20.47124-2.879584-16.029068 2.911306-28.753881 14.20656-39.439244 9.469676-8.958022 13.317307-19.222807 8.402367-31.781844-4.898567-12.489452-15.536858-12.797467-26.745131-12.790304-174.113503 0.102331-348.223936 0.072655-522.337439 0.072655-3.559059 0-7.120165 0-11.135618 0C384.948861 226.074945 384.948861 251.643274 384.948861 278.611485zM145.36525 279.07709c60.379159 0 120.115682 0 179.793876 0 0-26.738991 0-52.9387 0-78.95012-1.178849-0.323365-1.673106-0.576121-2.169409-0.576121-43.140543-0.051165-86.279039-0.203638-129.419582-0.042979-11.437493 0.042979-20.968567 5.007037-29.494755 12.69309C143.774009 230.508931 143.172305 254.091022 145.36525 279.07709z" p-id="38979"></path><path d="M509.450433 365.333616c25.227568 0.271176 46.350654 5.045923 64.933895 18.410302 15.118326 10.878768 25.26543 25.491581 31.596625 42.799782 7.888667 21.572318 8.831132 43.826158 5.308913 66.311265-4.175089 26.591635-10.891048 52.510958-22.432918 76.966952-8.43409 17.875113-19.293415 33.878598-35.08917 46.303582-22.353101 17.594727-53.490262 18.717294-76.537164 5.161556-17.866926-10.504238-30.135344-26.01142-39.84652-43.810808-12.497639-22.900569-19.652596-47.661509-24.845874-73.066109-3.291976-16.10377-5.054109-32.298614-3.272533-48.724725 2.780323-25.666566 11.847839-48.387034 31.528064-65.939805 15.263635-13.622252 33.510208-20.61041 53.573149-23.168676C500.275469 365.819686 506.249531 365.586372 509.450433 365.333616z" p-id="38980" data-spm-anchor-id="a313x.7781069.0.i112" class="selected" fill="#ffffff"></path><path d="M636.827495 773.46906c-102.492302 0-204.988698 0-307.745013 0-0.097214-1.052982-0.261966-2.001587-0.25992-2.951215 0.020466-12.935614-0.12689-25.859971 0.158612-38.789445 0.264013-12.012591 2.877537-23.475667 10.288321-33.305547 7.009647-9.31004 16.833387-14.814404 27.251667-19.325138 25.411763-10.998495 52.082192-17.200754 79.446423-20.833491 29.435403-3.9121 58.980299-5.02648 88.615247-3.825119 10.480702 0.423649 20.941961 1.36509 31.406291 2.102894 0.849344 0.059352 1.677199 0.36839 2.642177 0.580215-1.223874 24.575722 4.004197 47.50699 16.428158 68.632123C597.446579 746.824213 614.77934 762.552429 636.827495 773.46906z" p-id="38981" data-spm-anchor-id="a313x.7781069.0.i113" class="selected" fill="#ffffff"></path><path d="M707.016067 744.921887c-15.656585 0-30.749328 0-46.165436 0 0-18.844184 0-37.582967 0-56.67786-18.491143 0-36.665061 0-55.083549 0 0-15.960507 0-31.57002 0-47.471175 18.210757 0 36.305881 0 54.831816 0 0-18.995633 0-37.712927 0-56.706513 15.585977 0 30.738072 0 46.213531 0 0 18.85237 0 37.47552 0 56.531528 18.481933 0 36.647665 0 55.028291 0 0 15.94618 0 31.478945 0 47.368844-18.145266 0-36.317137 0-54.822606 0C707.016067 707.054441 707.016067 725.784014 707.016067 744.921887z" p-id="38982" data-spm-anchor-id="a313x.7781069.0.i114" class="selected" fill="#ffffff"></path></svg>