<?xml version="1.0" standalone="no"?><!DOCTYPE svg PUBLIC "-//W3C//DTD SVG 1.1//EN" "http://www.w3.org/Graphics/SVG/1.1/DTD/svg11.dtd"><svg t="1626928393294" class="icon" viewBox="0 0 1111 1024" version="1.1" xmlns="http://www.w3.org/2000/svg" p-id="6289" xmlns:xlink="http://www.w3.org/1999/xlink" width="216.9921875" height="200"><defs><style type="text/css">@font-face { font-family: feedback-iconfont; src: url("//at.alicdn.com/t/font_1031158_1uhr8ri0pk5.eot?#iefix") format("embedded-opentype"), url("//at.alicdn.com/t/font_1031158_1uhr8ri0pk5.woff2") format("woff2"), url("//at.alicdn.com/t/font_1031158_1uhr8ri0pk5.woff") format("woff"), url("//at.alicdn.com/t/font_1031158_1uhr8ri0pk5.ttf") format("truetype"), url("//at.alicdn.com/t/font_1031158_1uhr8ri0pk5.svg#iconfont") format("svg"); }
</style></defs><path d="M260.798823 511.853714c0 137.347461 111.337898 248.685359 248.685359 248.68536s248.685359-111.337898 248.685359-248.68536-111.337898-248.685359-248.685359-248.685359-248.685359 111.337898-248.685359 248.685359z m67.466875 45.11445v-55.881063h151.624926V321.916614h59.406544v235.036922H328.265698zM1111.770864 435.258624l-89.380443-52.501868-89.380444-52.516496-57.183004 87.478732-57.168376 87.507989 103.058139-24.590593c0.760685 10.430157 1.141027 20.904199 1.141027 31.363612 0 233.281495-187.406361 423.057681-417.776775 423.057681C274.725203 935.057681 87.333471 745.281495 87.333471 512c0-233.281495 187.391732-423.057681 417.762146-423.057681 112.683725 0 218.331117 44.763365 297.471575 126.024962l61.995797-62.624824A503.119738 503.119738 0 0 0 703.195448 40.916787 495.995634 495.995634 0 0 0 505.080988 0.000731C436.955828 0.000731 370.83478 13.532141 308.546412 40.229245a503.031967 503.031967 0 0 0-160.533714 109.655615A510.682699 510.682699 0 0 0 39.746796 312.612856 514.851836 514.851836 0 0 0 0.001024 512c0 69.13453 13.370495 136.206434 39.745772 199.387144a510.66807 510.66807 0 0 0 108.265902 162.727996 502.988081 502.988081 0 0 0 160.533714 109.670243A496.098034 496.098034 0 0 0 505.080988 1023.999269c68.139788 0 134.260837-13.531409 196.534577-40.228514a502.988081 502.988081 0 0 0 160.533713-109.655615 510.682699 510.682699 0 0 0 108.280531-162.727996A514.837207 514.837207 0 0 0 1010.160952 512c0-17.320204-0.863084-34.625779-2.574625-51.858212l104.184537-24.868536z" fill="#0084FF" p-id="6290"></path></svg>