<?xml version="1.0" standalone="no"?><!DOCTYPE svg PUBLIC "-//W3C//DTD SVG 1.1//EN" "http://www.w3.org/Graphics/SVG/1.1/DTD/svg11.dtd"><svg t="1626775561299" class="icon" viewBox="0 0 1024 1024" version="1.1" xmlns="http://www.w3.org/2000/svg" p-id="29667" data-spm-anchor-id="a313x.7781069.0.i74" xmlns:xlink="http://www.w3.org/1999/xlink" width="200" height="200"><defs><style type="text/css"></style></defs><path d="M937.6 243.2c12.4 0 22.4-10 22.4-22.4v-112c0-24.6-20.2-44.8-44.8-44.8H108.8C84.2 64 64 84.2 64 108.8v806.4c0 24.6 20.2 44.8 44.8 44.8h806.4c24.6 0 44.8-20.2 44.8-44.8V400c0-12.4-10-22.4-22.4-22.4-12.4 0-22.4 10-22.4 22.4v492.8c0 12.3-10.1 22.4-22.4 22.4H131.2c-12.3 0-22.4-10.1-22.4-22.4V131.2c0-12.3 10.1-22.4 22.4-22.4h761.6c12.3 0 22.4 10.1 22.4 22.4v89.6c0 12.4 10 22.4 22.4 22.4z" fill="#707070" p-id="29668" data-spm-anchor-id="a313x.7781069.0.i79" class="selected"></path><path d="M264.5 710.9c-1.5 13.3 8.9 25.1 22.4 25.1 11.2 0 20.9-8.3 22.1-19.4 9.7-89.8 85.7-159.8 178.2-159.8s168.5 70 178.2 159.8c0.1 0.6 0.4 1 0.5 1.6 0.3 1.6 0.7 3.1 1.4 4.6 0.6 1.4 1.4 2.5 2.3 3.7 0.7 1 1.4 1.9 2.2 2.8 1.3 1.3 2.7 2.2 4.3 3.2 0.7 0.4 1.2 1.1 1.9 1.4 0.2 0.1 0.5 0.1 0.7 0.2 1.7 0.7 3.6 1 5.5 1.3 1 0.1 1.9 0.5 2.9 0.5 0.2 0 0.3 0.1 0.4 0.1 0.9 0 1.6-0.4 2.5-0.5 2-0.2 4-0.5 5.9-1.3 1.3-0.5 2.3-1.3 3.5-2.1 1.3-0.9 2.7-1.7 3.8-2.8 1.1-1.1 2-2.5 2.8-3.8 0.5-0.8 1.3-1.4 1.7-2.3l94.7-203c5.2-11.2 0.4-24.5-10.8-29.8-11.2-5.2-24.5-0.4-29.8 10.8l-68.6 147.2c-23.5-54.8-67.7-98.4-123-120.4 31.2-24.6 51.4-62.7 51.4-105.6 0-74.2-60.2-134.4-134.4-134.4s-134.4 60.2-134.4 134.4c0 42.9 20.1 80.9 51.4 105.6-75.2 30-130.4 99.5-139.7 182.9z m133-288.5c0-49.5 40.1-89.6 89.6-89.6s89.6 40.1 89.6 89.6c0 49.5-40.1 89.6-89.6 89.6s-89.6-40.1-89.6-89.6z" fill="#4d5bad" p-id="29669" data-spm-anchor-id="a313x.7781069.0.i69" class=""></path></svg>