<?xml version="1.0" standalone="no"?><!DOCTYPE svg PUBLIC "-//W3C//DTD SVG 1.1//EN" "http://www.w3.org/Graphics/SVG/1.1/DTD/svg11.dtd"><svg class="icon" width="200px" height="200.00px" viewBox="0 0 1024 1024" version="1.1" xmlns="http://www.w3.org/2000/svg"><path d="M512 512m-512 0a512 512 0 1 0 1024 0 512 512 0 1 0-1024 0Z" fill="#FFFFFF" /><path d="M230.32 812.632c-8.144-0.328-15.76-2.36-22.16-7.016-8.24-5.984-13.576-14.056-15.2-24.32l-67.08-423.52c-1.624-10.28 0.952-19.6 6.936-27.84 5.984-8.232 14.048-13.56 24.32-15.184L794 213.88a37.56 37.56 0 0 1 43.016 31.256l67.08 423.52c1.624 10.272-0.944 19.592-6.928 27.832-5.992 8.24-14.848 13.68-24.32 15.192l-636.864 100.864c-1.584 0.256-3.952 0.624-5.664 0.088z m-71.184-485.24l2 12.64c-3.152 0.504-6.064 2.584-8.064 5.328-2.12 1.96-3.2 5.368-2.696 8.528l67.08 423.52c0.504 3.16 2.584 6.08 5.328 8.072 2.744 1.992 6.16 3.072 9.32 2.568l636.856-100.864c3.16-0.504 6.08-2.584 8.064-5.328 2-2.744 3.08-6.16 2.576-9.32l-67.08-423.52a12.64 12.64 0 0 0-14.64-10.64L161.016 339.248l-1.88-11.856z" fill="#333333" /><path d="M881.48 684.392l-662.144 104.88-47.312-298.688 662.152-104.872z" fill="#0072FF" /><path d="M834.24 386.104L172.08 490.984l-11.888-75.064 662.144-104.88z" fill="#FFFFFF" /><path d="M822.48 311.84L160.32 416.704l-11.88-75.064 662.144-104.88z" fill="#D6F1FF" /><path d="M633.496 545.472l146.96-23.28a24.928 24.928 0 0 1 28.384 20.616l4 25.28a24.928 24.928 0 0 1-20.616 28.384l-146.96 23.28a24.928 24.928 0 0 1-28.376-20.624l-4.008-25.28a24.928 24.928 0 0 1 20.616-28.376z" fill="#FFFFFF" /></svg>