<?xml version="1.0" standalone="no"?><!DOCTYPE svg PUBLIC "-//W3C//DTD SVG 1.1//EN" "http://www.w3.org/Graphics/SVG/1.1/DTD/svg11.dtd"><svg class="icon" width="200px" height="200.00px" viewBox="0 0 1024 1024" version="1.1" xmlns="http://www.w3.org/2000/svg"><path d="M875.6 724c0 128.5-162.8 160-363.6 160s-363.6-31.5-363.6-160S311.2 418.6 512 418.6 875.6 595.5 875.6 724z" fill="#C7F1FF" /><path d="M170.7 629V363.9c0-33.2 26.9-60.1 60.1-60.1h525.1c29.2 0 54.3 20.8 59.7 49.5L839 476.7c9.5 50.2 14.3 101.2 14.3 152.3 0 33.2-26.9 60.1-60.1 60.1H230.8c-33.2 0-60.1-26.9-60.1-60.1z" fill="#00B1FF" /><path d="M170.7 629.1v-18.8h682.6v18.8c0 33.1-26.9 60-60 60H230.7c-33.1 0-60-26.8-60-60z" fill="#0091F1" /><path d="M401.8 508.1H274.3c-13.2 0-23.9-10.7-23.9-23.9v-88.5c0-13.2 10.7-23.9 23.9-23.9h127.5c13.2 0 23.9 10.7 23.9 23.9v88.5c0 13.3-10.7 23.9-23.9 23.9zM651.2 508.1H523.6c-13.2 0-23.9-10.7-23.9-23.9v-88.5c0-13.2 10.7-23.9 23.9-23.9h127.5c13.2 0 23.9 10.7 23.9 23.9v88.5c0 13.3-10.7 23.9-23.8 23.9z" fill="#FFFFFF" /><path d="M819.1 371.9h-44.9c-9.4 0-17 7.6-17 17v102.3c0 9.4 7.6 17 17 17h69.1v-2.9l-0.9-9.6c-1.1-6.4-2.2-12.7-3.4-19.1l-19.9-104.7z" fill="#BBEAFF" /><path d="M170.7 626.3h682.6c-0.1-15.7-0.6-31.4-1.5-47.1H170.7v47.1z" fill="#FFD500" /><path d="M327.2 679.4m-76.8 0a76.8 76.8 0 1 0 153.6 0 76.8 76.8 0 1 0-153.6 0Z" fill="#FFFFFF" /><path d="M327.2 679.4m-44.1 0a44.1 44.1 0 1 0 88.2 0 44.1 44.1 0 1 0-88.2 0Z" fill="#FFD500" /><path d="M686.4 679.4m-76.8 0a76.8 76.8 0 1 0 153.6 0 76.8 76.8 0 1 0-153.6 0Z" fill="#FFFFFF" /><path d="M686.4 679.4m-43.7 0a43.7 43.7 0 1 0 87.4 0 43.7 43.7 0 1 0-87.4 0Z" fill="#FFD500" /></svg>